<mxfile host="app.diagrams.net" modified="2020-08-09T05:56:17.918Z" agent="5.0 (X11; Linux x86_64) AppleWebKit/537.36 (KHTML, like Gecko) Chrome/83.0.4103.116 Safari/537.36" etag="DZG6gSplRiqUH63ht1i_" version="13.6.2" type="github">
  <diagram id="N4Vqyrb39_QXqRwKlj0B" name="Page-1">
    <mxGraphModel dx="868" dy="445" grid="1" gridSize="10" guides="1" tooltips="1" connect="1" arrows="1" fold="1" page="1" pageScale="1" pageWidth="827" pageHeight="1169" math="0" shadow="0">
      <root>
        <mxCell id="0" />
        <mxCell id="1" parent="0" />
        <mxCell id="YElwogY75-uW2WK6O3v9-8" style="edgeStyle=orthogonalEdgeStyle;rounded=0;orthogonalLoop=1;jettySize=auto;html=1;entryX=0;entryY=0.5;entryDx=0;entryDy=0;" edge="1" parent="1" source="YElwogY75-uW2WK6O3v9-1" target="YElwogY75-uW2WK6O3v9-2">
          <mxGeometry relative="1" as="geometry" />
        </mxCell>
        <mxCell id="YElwogY75-uW2WK6O3v9-9" style="edgeStyle=orthogonalEdgeStyle;rounded=0;orthogonalLoop=1;jettySize=auto;html=1;entryX=0;entryY=0.5;entryDx=0;entryDy=0;" edge="1" parent="1" source="YElwogY75-uW2WK6O3v9-1" target="YElwogY75-uW2WK6O3v9-3">
          <mxGeometry relative="1" as="geometry" />
        </mxCell>
        <mxCell id="YElwogY75-uW2WK6O3v9-1" value="Ingestion Service" style="rounded=1;whiteSpace=wrap;html=1;" vertex="1" parent="1">
          <mxGeometry x="260" y="170" width="120" height="60" as="geometry" />
        </mxCell>
        <mxCell id="YElwogY75-uW2WK6O3v9-7" style="edgeStyle=orthogonalEdgeStyle;rounded=0;orthogonalLoop=1;jettySize=auto;html=1;" edge="1" parent="1" source="YElwogY75-uW2WK6O3v9-2" target="YElwogY75-uW2WK6O3v9-6">
          <mxGeometry relative="1" as="geometry" />
        </mxCell>
        <mxCell id="YElwogY75-uW2WK6O3v9-2" value="Data Analytics" style="rounded=1;whiteSpace=wrap;html=1;" vertex="1" parent="1">
          <mxGeometry x="480" y="100" width="120" height="60" as="geometry" />
        </mxCell>
        <mxCell id="YElwogY75-uW2WK6O3v9-11" style="edgeStyle=orthogonalEdgeStyle;rounded=0;orthogonalLoop=1;jettySize=auto;html=1;" edge="1" parent="1" source="YElwogY75-uW2WK6O3v9-3" target="YElwogY75-uW2WK6O3v9-10">
          <mxGeometry relative="1" as="geometry" />
        </mxCell>
        <mxCell id="YElwogY75-uW2WK6O3v9-3" value="3rd party connection" style="rounded=1;whiteSpace=wrap;html=1;" vertex="1" parent="1">
          <mxGeometry x="480" y="230" width="120" height="60" as="geometry" />
        </mxCell>
        <mxCell id="YElwogY75-uW2WK6O3v9-5" style="edgeStyle=orthogonalEdgeStyle;rounded=0;orthogonalLoop=1;jettySize=auto;html=1;" edge="1" parent="1" source="YElwogY75-uW2WK6O3v9-4" target="YElwogY75-uW2WK6O3v9-1">
          <mxGeometry relative="1" as="geometry" />
        </mxCell>
        <mxCell id="YElwogY75-uW2WK6O3v9-4" value="Front-end" style="text;html=1;strokeColor=none;fillColor=none;align=center;verticalAlign=middle;whiteSpace=wrap;rounded=0;" vertex="1" parent="1">
          <mxGeometry x="160" y="190" width="70" height="20" as="geometry" />
        </mxCell>
        <mxCell id="YElwogY75-uW2WK6O3v9-6" value="Client" style="text;html=1;strokeColor=none;fillColor=none;align=center;verticalAlign=middle;whiteSpace=wrap;rounded=0;" vertex="1" parent="1">
          <mxGeometry x="650" y="120" width="40" height="20" as="geometry" />
        </mxCell>
        <mxCell id="YElwogY75-uW2WK6O3v9-10" value="3rd party" style="text;html=1;strokeColor=none;fillColor=none;align=center;verticalAlign=middle;whiteSpace=wrap;rounded=0;" vertex="1" parent="1">
          <mxGeometry x="650" y="250" width="70" height="20" as="geometry" />
        </mxCell>
      </root>
    </mxGraphModel>
  </diagram>
</mxfile>
